<svg xmlns="http://www.w3.org/2000/svg" viewBox="0 0 24.724 24.681">
  <defs>
    <style>
      .cls-1 {
        fill: #fff84e;
      }
    </style>
  </defs>
  <g id="Right" transform="translate(0.101 0)">
    <g id="Layer_1" data-name="Layer 1" transform="translate(-0.101 0)">
      <path id="Path_89" data-name="Path 89" class="cls-1" d="M12.283,0a12.34,12.34,0,1,0,12.3,12.34A12.34,12.34,0,0,0,12.283,0Zm0,23.023A10.683,10.683,0,1,1,22.967,12.34,10.683,10.683,0,0,1,12.283,23.023ZM12.283,0a12.34,12.34,0,1,0,12.34,12.34A12.34,12.34,0,0,0,12.283,0Zm0,23.023A10.683,10.683,0,1,1,22.967,12.34,10.683,10.683,0,0,1,12.283,23.023Zm-.349-7.282h0l-.872.872L6.876,12.427,8.01,11.294l3.052,3.052L16.6,8.808l1.134,1.134Z" transform="translate(0.101 0)"/>
    </g>
  </g>
</svg>
