<svg xmlns="http://www.w3.org/2000/svg" viewBox="0 0 52.045 25.185">
  <defs>
    <style>
      .cls-1 {
        fill: #414141;
      }
    </style>
  </defs>
  <g id="Type" transform="translate(0 0)">
    <g id="Layer_1" data-name="Layer 1" transform="translate(0 0)">
      <path id="Path_91" data-name="Path 91" class="cls-1" d="M.84,0A.789.789,0,0,0,0,.84v23.5a.789.789,0,0,0,.839.839H51.2a.789.789,0,0,0,.839-.839V.84A.789.789,0,0,0,51.2,0ZM3.677,3.358H6.2a.47.47,0,0,1,.52.52V6.4a.336.336,0,0,1-.319.319H3.677A.336.336,0,0,1,3.358,6.4V3.879C3.358,3.543,3.509,3.358,3.677,3.358Zm5.036,0h2.518a.47.47,0,0,1,.52.52V6.4a.336.336,0,0,1-.319.319H8.714A.336.336,0,0,1,8.395,6.4V3.879C8.395,3.543,8.546,3.358,8.714,3.358Zm5.036,0h2.518a.47.47,0,0,1,.52.52V6.4a.336.336,0,0,1-.319.319H13.75a.336.336,0,0,1-.319-.319V3.879c0-.336.151-.52.319-.52Zm5.036,0H21.3a.47.47,0,0,1,.52.52V6.4a.336.336,0,0,1-.319.319H18.988c-.336,0-.52-.151-.52-.319V3.879C18.467,3.543,18.618,3.358,18.786,3.358Zm5.036,0h2.518a.47.47,0,0,1,.52.52V6.4a.336.336,0,0,1-.319.319H24.024c-.336,0-.52-.151-.52-.319V3.879c0-.336.151-.52.319-.52Zm5.036,0h2.518a.47.47,0,0,1,.52.52V6.4a.336.336,0,0,1-.319.319H29.06c-.336,0-.52-.151-.52-.319V3.879C28.54,3.543,28.691,3.358,28.859,3.358Zm5.036,0h2.518a.47.47,0,0,1,.52.52V6.4a.336.336,0,0,1-.319.319H34.1c-.336,0-.52-.151-.52-.319V3.879C33.576,3.543,33.727,3.358,33.9,3.358Zm5.036,0H41.45a.47.47,0,0,1,.52.52V6.4a.336.336,0,0,1-.319.319H39.133c-.336,0-.52-.151-.52-.319V3.879C38.612,3.543,38.763,3.358,38.931,3.358Zm5.036,0h4.2a.47.47,0,0,1,.52.52V6.4a.336.336,0,0,1-.319.319h-4.2c-.336,0-.52-.151-.52-.319V3.879C43.649,3.543,43.8,3.358,43.968,3.358ZM3.677,8.395h4.2c.336,0,.52.151.52.319v2.518c0,.336-.151.52-.319.52h-4.4a.336.336,0,0,1-.319-.319V8.714a.336.336,0,0,1,.319-.319Zm6.715,0H12.91c.336,0,.52.151.52.319v2.518c0,.336-.151.52-.319.52h-2.72a.336.336,0,0,1-.319-.319V8.714A.336.336,0,0,1,10.392,8.395Zm5.036,0h2.518c.336,0,.52.151.52.319v2.518c0,.336-.151.52-.319.52h-2.72a.336.336,0,0,1-.319-.319V8.714a.336.336,0,0,1,.319-.319Zm5.036,0h2.518c.336,0,.52.151.52.319v2.518c0,.336-.151.52-.319.52H20.666c-.336,0-.52-.151-.52-.319V8.714a.336.336,0,0,1,.319-.319Zm5.036,0h2.518c.336,0,.52.151.52.319v2.518c0,.336-.151.52-.319.52H25.7c-.336,0-.52-.151-.52-.319V8.714A.336.336,0,0,1,25.5,8.395Zm5.036,0h2.518c.336,0,.52.151.52.319v2.518c0,.336-.151.52-.319.52H30.739c-.336,0-.52-.151-.52-.319V8.714A.336.336,0,0,1,30.538,8.395Zm5.036,0h2.518c.336,0,.52.151.52.319v2.518c0,.336-.151.52-.319.52H35.775c-.336,0-.52-.151-.52-.319V8.714A.336.336,0,0,1,35.574,8.395Zm5.036,0h2.518c.336,0,.52.151.52.319v2.518c0,.336-.151.52-.319.52H40.812c-.336,0-.52-.151-.52-.319V8.714A.336.336,0,0,1,40.61,8.395Zm5.036,0h2.518c.336,0,.52.151.52.319v2.72a.336.336,0,0,1-.319.319H45.848c-.336,0-.52-.151-.52-.319V8.714a.336.336,0,0,1,.319-.319ZM3.677,13.431H9.553c.336,0,.52.151.52.319v2.518c0,.336-.151.52-.319.52H3.677a.336.336,0,0,1-.319-.319V13.75a.336.336,0,0,1,.319-.319Zm8.394,0h2.518c.336,0,.52.151.52.319v2.518c0,.336-.151.52-.319.52h-2.72a.336.336,0,0,1-.319-.319V13.75a.336.336,0,0,1,.319-.319Zm5.036,0h2.518c.336,0,.52.151.52.319v2.518a.386.386,0,0,1-.319.369H17.309c-.336.168-.52,0-.52-.168V13.75A.336.336,0,0,1,17.107,13.431Zm5.036,0h2.518c.336,0,.52.151.52.319v2.518a.386.386,0,0,1-.319.369H22.345c-.336.168-.52,0-.52-.168V13.75a.336.336,0,0,1,.319-.319Zm5.036,0H29.7c.336,0,.52.151.52.319v2.518a.386.386,0,0,1-.319.369H27.381c-.336.168-.52,0-.52-.168V13.75a.336.336,0,0,1,.319-.319Zm5.036,0h2.518c.336,0,.52.151.52.319v2.518a.386.386,0,0,1-.319.369H32.418c-.336.168-.52,0-.52-.168V13.75a.336.336,0,0,1,.319-.319Zm5.036,0h2.518c.336,0,.52.151.52.319v2.518c0,.336-.151.52-.319.52H37.454c-.336,0-.52-.151-.52-.319V13.75a.336.336,0,0,1,.319-.319Zm5.036,0h5.876c.336,0,.52.151.52.319v2.72a.336.336,0,0,1-.319.319H42.49c-.336,0-.52-.151-.52-.319V13.75a.336.336,0,0,1,.319-.319ZM3.677,18.467H6.2c.336,0,.52.151.52.319v2.72a.336.336,0,0,1-.319.319H3.677a.336.336,0,0,1-.319-.319V18.988c0-.336.151-.52.319-.52Zm5.036,0h2.518c.336,0,.52.151.52.319v2.72a.336.336,0,0,1-.319.319H8.714a.336.336,0,0,1-.319-.319V18.988C8.395,18.652,8.546,18.467,8.714,18.467Zm5.036,0H38.092a.386.386,0,0,1,.369.319v2.72h.151a.336.336,0,0,1-.319.319H13.75a.336.336,0,0,1-.319-.319V18.988c0-.336.151-.52.319-.52Zm27.062.151H43.33a.386.386,0,0,1,.319.369v2.518a.336.336,0,0,1-.319.319H40.812a.386.386,0,0,1-.369-.319V18.988a.42.42,0,0,1,.369-.369Zm5.036,0h2.518a.386.386,0,0,1,.319.369v2.518a.336.336,0,0,1-.319.319H45.848a.386.386,0,0,1-.369-.319V18.988a.42.42,0,0,1,.369-.369Z" transform="translate(0.001 0.001)"/>
    </g>
  </g>
</svg>
