<svg id="Logo_Amnesty_1" data-name="Logo Amnesty_1" xmlns="http://www.w3.org/2000/svg" viewBox="0 0 169.971 72.02">
  <defs>
    <style>
      .cls-1 {
        fill: #161616;
      }

      .cls-2 {
        fill: #fff;
      }
    </style>
  </defs>
  <g id="Layer_1" data-name="Layer 1">
    <rect id="Rectangle_1160" data-name="Rectangle 1160" class="cls-1" width="169.971" height="72.02"/>
    <path id="Path_93" data-name="Path 93" class="cls-2" d="M55.968,65.608l1.363-8.621h.056l1.363,8.621ZM55.219,53l-3.7,20.056h3.337l.611-4.448h3.781l.6,4.448H63.2L59.5,53Z" transform="translate(-34.683 -35.68)"/>
    <path id="Path_94" data-name="Path 94" class="cls-2" d="M95.443,57.342H95.5L98.61,73.025h1.67L103.4,57.342h.049V73.025h3.007V52.95H101.92L99.473,64.682h-.056L96.973,52.95H92.44V73.025h3Z" transform="translate(-62.231 -35.646)"/>
    <path id="Path_95" data-name="Path 95" class="cls-2" d="M152.451,64.43h-.059l-4.2-11.48H145V73.022h3.111V60.486h.056l4.4,12.536h3V52.95h-3.114Z" transform="translate(-97.614 -35.646)"/>
    <path id="Path_96" data-name="Path 96" class="cls-2" d="M196.621,70.019h-6.173V64.126H194.9v-3h-4.448V55.95h5.788v-3H187V73.025h9.621Z" transform="translate(-125.889 -35.646)"/>
    <path id="Path_97" data-name="Path 97" class="cls-2" d="M223.1,57.111c0-1.252.611-1.961,1.722-1.961.781,0,1.7.5,1.837,2.225l3.268-.359c-.3-2.837-1.961-4.866-4.784-4.866-3.389,0-5.333,1.807-5.333,5,0,5.758,7,6.814,7,10.784a1.773,1.773,0,0,1-2,1.837c-1.111,0-1.918-1-2.056-3.033l-3.268.471c.137,3.007,1.961,5.556,5.173,5.556s5.451-1.84,5.451-5.147c0-5.448-7.007-7.088-7.007-10.51" transform="translate(-147.761 -35.108)"/>
    <path id="Path_98" data-name="Path 98" class="cls-2" d="M257.217,73.025h3.448V55.953H264v-3H253.88v3h3.337Z" transform="translate(-170.913 -35.646)"/>
    <path id="Path_99" data-name="Path 99" class="cls-2" d="M293.367,60.6h-.052L290.9,52.96H287.39l4.17,11.729v8.343h3.451V64.689l4.167-11.729h-3.5Z" transform="translate(-193.472 -35.653)"/>
    <path id="Path_100" data-name="Path 100" class="cls-2" d="M398.857,62.424c-.229-.1-.258-.81-.386-.81-.2,0-.3.654-.683.745s-.98-.422-1.141-.294.366,1.056-.51,1.056c-.261,0-.4-.3-.4-.526V55.519a2.029,2.029,0,0,1,.422.085c.258.069.52.2.52.556,0,.19-.069.582.062.654s.229-.065.294-.1c1.2-.876,1.493.68,1.752.68s.2-1.069.52-1.069c.265-.1,2.761,1.1,2.761,1.882,0,.163-.327.193-.356.359-.029.229.585.327.487.745-.036.265-.618.585-.458.745s.944-.16,1.01-.16c.163,0,.193.258.193.356,0,1.431-3.343,2.5-4.091,2.176m-8.9,1.134c-.193-.327-.1-.876-.291-.876-.095,0-.614.781-.912.781s-.775-.552-.98-.552c-.131,0,.131.781-.131,1.1-.163.229-1.722.4-1.722.2V53.17a.69.69,0,0,1,.745-.716h5.814c.712,0,1.007.225,1.007.98v9.912c0,.327-3.415.454-3.546.222m3.542,14c0,.683-.232.843-.814.716l-6.209-1.235a.621.621,0,0,1-.556-.68V65.121c0-.291,1.01-.327,1.17-.2.294.261.2,1.2.389,1.2.261,0,.941-1.137,1.235-1.137.618,0,1.039.356,1.167.294s.134-.588.294-.716a3.918,3.918,0,0,1,1.265-.2c.588-.029,1.66-.127,1.66-.127.422,0,.389.294.389.912Zm-6.673-32.611c0-4.48,6.624-7.046,7.078-9.32a2.477,2.477,0,0,1,.552,1.853c0,2.725-4.742,7.3-4.742,10.618,0,.359.033.454.033.683,0,.327-.131.389-.193.389-.784,0-2.729-1.529-2.729-4.222m-3.67,28.026c-.52,0-.843-1.042-.98-1.007s.036.876-.163,1.007a18.2,18.2,0,0,1-3.863-1.686c-.268-.255.1-.552,0-.781s-.588-.134-.745-.232.157-.716-.033-.84-.52.585-.748.255a1.108,1.108,0,0,1-.131-.654c0-1.98,2.108-2.791,3.539-3.268.582-.2.386.549.582.582s.261-.356.523-.356c.2,0,.944.356,1.1.225s-.389-.582-.229-.778,1.706-.444,1.69-.059v6.938c0,.729-.559.654-.559.654m20.415-11.954a7.743,7.743,0,0,0,.487-1.654c.19-.327.905-.261.905-.487,0-.095-.516-.225-.716-.356-.382-.225-.255-1.4-.448-1.4-.3,0-.588.81-.882.454a12.435,12.435,0,0,0-3.634-2.242c-.359-.131.261-1.2.1-1.307s-.585.654-1.2.523c-.487-.1-.261-.98-.52-.98-.131,0-.621,1.235-.98,1.137s-.905-.239-.905-.239V51.245a.9.9,0,0,0-.846-.98h-3.513c-.98,0-.909-.712-.909-.876,0-4.32,6.268-5.033,6.268-10.683,0-2.467-1.556-4.124-3.376-5.588-.1-.062,0,.359,0,.523,0,2.614-9.775,3.993-9.775,10.065,0,5.291,5.261,5.52,5.261,6.333,0,.16-.327.225-.356.225h-4.026c-.422,0-.791.261-.784.98v3.268c-.392.131-.908-.454-1.17-.454-.131,0-.062,1.007-.291,1.141s-3.85,1.379-4.176,1.405c-.516.1-.386-.81-.676-.81s-.265.909-.912.909c-.389,0-.712-.359-1.007-.359-.193,0,.422.748.422.98,0,.621-1.2.846-1.2,1.268,0,.229,1.134-.095,1.307-.095.585,0,.52.683.745.683s.389-.784.585-.912c.389-.225.846.163,1.039.163.327,0-.258-.781.036-.912a32.088,32.088,0,0,1,4.219-1.559c.261.127.2.523.454.654s.654-.908.654-.261V64.31a4.575,4.575,0,0,1-1.961.458c-.255,0-.131-.846-.291-.846-.261,0-.523.712-.908.712s-.876-.873-1.232-.873c-.225,0,.418,1.1.029,1.307-1.5.748-3.866,1.461-3.866,3.827,0,.493.265,1.078.16,1.235-.091.232-.611.683-.582.879s.98.127,1.173.425c.095.157.16.873.359.873s.578-.549.938-.356c1.134.683,3.114,1.428,4.029,1.922.222.131.091.84.222.905.261.131.778-.68,1.595-.229a.693.693,0,0,1,.327.621v2.657c0,.487.225.614.487.68l9.683,1.925a9.119,9.119,0,0,0,1.15.193c.327,0,.755,0,.732-.814V73.761a.232.232,0,0,1,.206-.209c.569,0,.284,1.634.412,1.634.258,0,.422-1.1.748-1.1.454,0,.748.422.938.327s-.091-.618-.091-.944.84-.418,1.882-.81a12.1,12.1,0,0,1,1.961-.68c.225,0,.386.614.585.614s.193-.807.552-.807c.291,0,.938.451,1.1.327s-.327-.712.029-.98c.261-.16.876-.546.876-.709a5.18,5.18,0,0,0-1.265-.134c-.225-.062-.487-.778-.654-.778s-.186.716-.484.941-.908-.683-1.2-.683c-.167,0,.19.654.19,1.173s-3.147,1.526-3.569,1.526c-.654,0-.683-.814-.814-.814-.2,0-.19.98-.909.98a.454.454,0,0,1-.487-.461V64.382a.477.477,0,0,1,.487-.546c.536-.023.549,1.186.745,1.186.356,0,.552-1.2,1.232-1.2.523,0,.944.716,1.268.716.229,0-.389-.745-.389-1.1s3.216-.225,4.451-2.405" transform="translate(-252.235 -22.29)"/>
    <rect id="Rectangle_1161" data-name="Rectangle 1161" class="cls-2" width="2.075" height="12.095" transform="translate(17.291 42.637)"/>
    <path id="Path_101" data-name="Path 101" class="cls-2" d="M64.84,142.565V130.47h1.928l2.529,6.915h.033V130.47h1.879v12.095H69.4l-2.65-7.556h-.029v7.556Z" transform="translate(-43.65 -87.833)"/>
    <path id="Path_102" data-name="Path 102" class="cls-2" d="M89.373,132.27H87.36v-1.81h6.1v1.81h-2.01v10.288H89.373Z" transform="translate(-58.811 -87.826)"/>
    <path id="Path_103" data-name="Path 103" class="cls-2" d="M109.12,142.565V130.47h5.562v1.807H111.2v3.118h2.68V137.2H111.2v3.552h3.719v1.81Z" transform="translate(-73.46 -87.833)"/>
    <path id="Path_104" data-name="Path 104" class="cls-2" d="M133.065,142.572H131V130.48h2.915a3.745,3.745,0,0,1,2.631.824,3.614,3.614,0,0,1,.889,2.748,5.34,5.34,0,0,1-.127,1.255,3.269,3.269,0,0,1-.327.879,2.134,2.134,0,0,1-.471.578,2.228,2.228,0,0,1-.526.327l1.758,5.477h-2.111l-1.474-5.01a3.814,3.814,0,0,1-.5.042h-.575Zm-.147-6.667h.735a2.614,2.614,0,0,0,.712-.085.925.925,0,0,0,.477-.3,1.34,1.34,0,0,0,.268-.578,4.061,4.061,0,0,0,.085-.9,2.25,2.25,0,0,0-.353-1.467,1.536,1.536,0,0,0-1.19-.392h-.735Z" transform="translate(-88.19 -87.839)"/>
    <path id="Path_105" data-name="Path 105" class="cls-2" d="M155.67,142.565V130.47H157.6l2.529,6.915h.033V130.47h1.879v12.095h-1.81l-2.65-7.556h-.029v7.556Z" transform="translate(-104.797 -87.833)"/>
    <path id="Path_106" data-name="Path 106" class="cls-2" d="M180.7,142.572h-2.01l2.229-12.092H183.5l2.229,12.092h-2.01l-.369-2.68h-2.288Zm.654-4.49h1.686l-.82-5.193h-.036Z" transform="translate(-120.295 -87.839)"/>
    <path id="Path_107" data-name="Path 107" class="cls-2" d="M201.77,132.27h-2.01v-1.81h6.1v1.81h-2.01v10.288H201.77Z" transform="translate(-134.479 -87.826)"/>
    <rect id="Rectangle_1162" data-name="Rectangle 1162" class="cls-2" width="2.075" height="12.095" transform="translate(72.683 42.637)"/>
    <path id="Path_108" data-name="Path 108" class="cls-2" d="M233.84,133.083a3.706,3.706,0,0,1,.193-1.209,2.651,2.651,0,0,1,.588-.98,2.853,2.853,0,0,1,.98-.654,4.249,4.249,0,0,1,2.83,0,2.866,2.866,0,0,1,.98.654,2.686,2.686,0,0,1,.585.98,3.8,3.8,0,0,1,.193,1.209v6.232a3.759,3.759,0,0,1-.193,1.206,2.7,2.7,0,0,1-.585.98,2.814,2.814,0,0,1-.98.654,4.206,4.206,0,0,1-2.83,0,2.8,2.8,0,0,1-.98-.654,2.664,2.664,0,0,1-.588-.98,3.674,3.674,0,0,1-.193-1.206Zm2.078,6.18a1.781,1.781,0,0,0,.232,1.016,1.327,1.327,0,0,0,1.745,0,1.781,1.781,0,0,0,.235-1.016v-6.131a1.775,1.775,0,0,0-.235-1.013,1.327,1.327,0,0,0-1.745,0,1.778,1.778,0,0,0-.232,1.013Z" transform="translate(-157.421 -87.515)"/>
    <path id="Path_109" data-name="Path 109" class="cls-2" d="M257.62,142.565V130.47h1.925l2.533,6.915h.033V130.47h1.876v12.095h-1.81l-2.647-7.556H259.5v7.556Z" transform="translate(-173.43 -87.833)"/>
    <path id="Path_110" data-name="Path 110" class="cls-2" d="M282.71,142.572H280.7l2.225-12.092h2.582l2.229,12.092h-2.01l-.369-2.68h-2.288Zm.654-4.49h1.683l-.82-5.193h-.033Z" transform="translate(-188.968 -87.839)"/>
    <path id="Path_111" data-name="Path 111" class="cls-2" d="M305.37,142.565V130.47h2.078v10.284h3.265v1.81Z" transform="translate(-205.576 -87.833)"/>
  </g>
</svg>
