<svg xmlns="http://www.w3.org/2000/svg" viewBox="0 0 110.105 73.54">
  <defs>
    <style>
      .cls-1 {
        fill: #fff200;
      }

      .cls-2 {
        fill: #231f20;
      }

      .cls-3 {
        fill: #fff;
      }
    </style>
  </defs>
  <g id="bref_yellow" transform="translate(-102.83 -82.28)">
    <path id="Path_112" data-name="Path 112" class="cls-1" d="M231.23,143.562a2.24,2.24,0,0,0-2.3-2.175h0v-1.776h0a2.181,2.181,0,1,0,0-4.353h0v-1.776h0a2.181,2.181,0,1,0,0-4.353h0v-1.773h0a2.181,2.181,0,1,0,0-4.353h0V121.23h0a2.181,2.181,0,1,0,0-4.353h0V115.1h0a2.181,2.181,0,1,0,0-4.353h0v-1.776a2.369,2.369,0,0,0,1.628-.636,2.12,2.12,0,0,0,.673-1.536,2.243,2.243,0,0,0-2.286-2.175h0v-1.773h0a2.186,2.186,0,1,0,0-4.372h0V96.7h0a2.181,2.181,0,1,0,0-4.353h0V90.572h0a2.181,2.181,0,1,0,0-4.353h0V84.455h0a2.24,2.24,0,0,0,2.3-2.175h1.88a2.3,2.3,0,1,0,4.608,0h1.88a2.307,2.307,0,0,0,4.608,0H246.1a2.307,2.307,0,0,0,4.608,0h1.88a2.3,2.3,0,0,0,4.608,0h1.856a2.307,2.307,0,0,0,4.608,0h1.877a2.307,2.307,0,0,0,4.608,0h1.88a2.3,2.3,0,0,0,4.608,0h1.88a2.307,2.307,0,0,0,4.608,0H285a2.307,2.307,0,0,0,4.608,0h1.88a2.3,2.3,0,1,0,4.608,0h1.88a2.246,2.246,0,0,0,2.3,2.178v1.773a2.181,2.181,0,1,0,0,4.353V92.36a2.181,2.181,0,1,0,0,4.353v1.763a2.181,2.181,0,1,0,0,4.353v1.791a2.307,2.307,0,0,0-2.111,1.312v.015c-.018.037-.025.08-.04.12a2.046,2.046,0,0,0-.141.728h0a2.24,2.24,0,0,0,2.3,2.175v1.776a2.181,2.181,0,1,0,0,4.353v1.776a2.181,2.181,0,1,0,0,4.353v1.776a2.178,2.178,0,1,0,0,4.35v1.776a2.181,2.181,0,1,0,0,4.353v1.776a2.181,2.181,0,1,0,0,4.353v1.776a2.181,2.181,0,1,0,0,4.353v1.773a2.181,2.181,0,1,0,0,4.353v1.776a2.3,2.3,0,0,0-2.12,1.33,2.056,2.056,0,0,0-.181.845h-1.88a2.3,2.3,0,1,0-4.608,0h-1.88a2.307,2.307,0,0,0-4.608,0h-1.877a2.307,2.307,0,0,0-4.608,0h-1.88a2.3,2.3,0,1,0-4.608,0h-1.88a2.307,2.307,0,0,0-4.608,0h-1.886a2.307,2.307,0,0,0-4.608,0h-1.88a2.3,2.3,0,0,0-4.608,0h-1.88a2.307,2.307,0,0,0-4.608,0H244.2a2.307,2.307,0,0,0-4.608,0h-1.88a2.3,2.3,0,0,0-4.608,0h-1.88a2.24,2.24,0,0,0-2.3-2.175h0v-1.776h0a2.181,2.181,0,1,0,0-4.353h0V145.74h0a2.24,2.24,0,0,0,2.31-2.178Z" transform="translate(-87.352)"/>
    <path id="Path_113" data-name="Path 113" class="cls-2" d="M279.868,129.854H276V117.54h3.846a2.424,2.424,0,0,1,2.716,2.605v1.333a1.85,1.85,0,0,1-1.459,2.071,1.923,1.923,0,0,1,1.515,2.089v1.607A2.449,2.449,0,0,1,279.868,129.854Zm.479-9.542c0-.553-.24-.888-.814-.888H278.3V122.8h1.146c.593,0,.906-.307.906-.962Zm.037,5.158c0-.645-.307-.977-.906-.977h-1.183v3.475h1.3c.571,0,.793-.307.793-.888Z" transform="translate(-119.968 -24.427)"/>
    <path id="Path_114" data-name="Path 114" class="cls-2" d="M305.353,129.927c-.9,0-1.257-.74-1.257-1.813V125.8a.939.939,0,0,0-.943-1.054h-1.2v5.1H299.66V117.54h3.791a2.54,2.54,0,0,1,2.808,2.679v1.739a1.825,1.825,0,0,1-1.386,1.9,1.886,1.886,0,0,1,1.422,1.868v2.255a1.73,1.73,0,0,0,.445,1.257v.685Zm-1.33-9.616c0-.553-.24-.888-.814-.888h-1.257v3.625h1.164c.593,0,.906-.307.906-.98Z" transform="translate(-136.359 -24.427)"/>
    <path id="Path_115" data-name="Path 115" class="cls-2" d="M324.87,122.552V110.238h5.877v1.985h-3.585v3.051h2.479v1.81h-2.479v3.422h3.585v2.052Zm3.235-13.017h-1.091L327.7,107h1.886Z" transform="translate(-153.824 -17.125)"/>
    <path id="Path_116" data-name="Path 116" class="cls-2" d="M347.922,119.463V122.7h2.553v1.923h-2.553v5.223H345.63v-12.3h5.751v1.923Z" transform="translate(-168.206 -24.427)"/>
    <path id="Path_117" data-name="Path 117" class="cls-2" d="M379.524,119.574v10.28h-2.31v-10.28H374.94V117.54h6.839v2.034Z" transform="translate(-188.511 -24.427)"/>
    <path id="Path_118" data-name="Path 118" class="cls-2" d="M400.39,129.854V117.54h2.292v12.314Z" transform="translate(-206.142 -24.427)"/>
    <path id="Path_119" data-name="Path 119" class="cls-2" d="M413.09,129.854V117.54h2.292v10.28h3.441v2.034Z" transform="translate(-214.941 -24.427)"/>
    <path id="Path_120" data-name="Path 120" class="cls-2" d="M258.643,185.034H254.76V172.72h3.846a2.426,2.426,0,0,1,2.719,2.608v1.33a1.852,1.852,0,0,1-1.462,2.071,1.925,1.925,0,0,1,1.518,2.089v1.61A2.43,2.43,0,0,1,258.643,185.034Zm.492-9.539c0-.556-.24-.888-.811-.888h-1.229v3.379h1.118c.59,0,.9-.307.9-.962Zm.037,5.158c0-.648-.307-.98-.9-.98h-1.186v3.475h1.3c.571,0,.793-.307.793-.888Z" transform="translate(-105.253 -62.655)"/>
    <path id="Path_121" data-name="Path 121" class="cls-2" d="M282.723,185.31a3.017,3.017,0,0,1-3.293-3.2v-1.979h2.2v2.015c0,.759.387,1.146,1.051,1.146s1.038-.387,1.038-1.146V172.72h2.31V182A3.078,3.078,0,0,1,282.723,185.31Z" transform="translate(-122.344 -62.655)"/>
    <path id="Path_122" data-name="Path 122" class="cls-2" d="M308.433,185.034l-.409-2.421h-2.181l-.442,2.421H303.25l2.476-12.314H308.3l2.458,12.314Zm-1.444-8.986-.829,4.747h1.57Z" transform="translate(-138.846 -62.655)"/>
    <path id="Path_123" data-name="Path 123" class="cls-2" d="M336.23,185.095c-.9,0-1.257-.74-1.257-1.813v-2.31a.94.94,0,0,0-.943-1.054h-1.2v5.115H330.54V172.72h3.791a2.541,2.541,0,0,1,2.808,2.682v1.736a1.825,1.825,0,0,1-1.386,1.9,1.886,1.886,0,0,1,1.422,1.868v2.255a1.715,1.715,0,0,0,.445,1.257v.673Zm-1.33-9.613c0-.556-.24-.888-.814-.888h-1.254v3.622H334c.593,0,.922-.307.922-.98Z" transform="translate(-157.752 -62.655)"/>
    <path id="Path_124" data-name="Path 124" class="cls-2" d="M362.267,184.452l-.307-.98a2.415,2.415,0,0,1-2.258,1.257,3.021,3.021,0,0,1-3.161-3.217v-6.433a3.25,3.25,0,0,1,3.515-3.2,3.109,3.109,0,0,1,3.386,3.2v1.275h-2.2v-1.364a1.067,1.067,0,0,0-1.183-1.109,1.1,1.1,0,0,0-1.2,1.146v6.562a1.229,1.229,0,0,0,2.439,0v-1.717h-1.2v-1.665h3.419v6.246Z" transform="translate(-175.764 -62.073)"/>
    <path id="Path_125" data-name="Path 125" class="cls-2" d="M386.543,185.034l-.409-2.421h-2.181l-.442,2.421H381.36l2.476-12.314h2.572l2.458,12.314Zm-1.444-8.986-.83,4.747h1.57Z" transform="translate(-192.959 -62.655)"/>
    <path id="Path_126" data-name="Path 126" class="cls-2" d="M414.333,185.095c-.906,0-1.257-.74-1.257-1.813v-2.31a.94.94,0,0,0-.943-1.054h-1.2v5.115H408.64V172.72h3.8a2.542,2.542,0,0,1,2.811,2.682v1.736a1.825,1.825,0,0,1-1.386,1.9,1.886,1.886,0,0,1,1.422,1.868v2.255a1.714,1.714,0,0,0,.445,1.257v.673ZM413,175.482c0-.556-.24-.888-.814-.888h-1.257v3.622H412.1c.593,0,.906-.307.906-.98Z" transform="translate(-211.858 -62.655)"/>
    <path id="Path_127" data-name="Path 127" class="cls-2" d="M365.61,240.22V227.9H367.9v10.28h3.441v2.04Z" transform="translate(-182.048 -100.882)"/>
    <path id="Path_128" data-name="Path 128" class="cls-2" d="M387.58,232.939v-12.32h2.28v12.32Zm1.588-13.014h-1.091l.685-2.535h1.886Z" transform="translate(-197.268 -93.601)"/>
    <path id="Path_129" data-name="Path 129" class="cls-2" d="M402.534,229.823v3.235h2.541V235h-2.553v5.223H400.23V227.9H406v1.923Z" transform="translate(-206.031 -100.882)"/>
    <path id="Path_130" data-name="Path 130" class="cls-2" d="M422.36,240.22V227.9h2.292v12.32Z" transform="translate(-221.363 -100.882)"/>
    <path id="Path_131" data-name="Path 131" class="cls-3" d="M301.5,234.841c.67-.258.664.175,1.066.75a1.537,1.537,0,0,0,.289.252c.071-.108.141-.215.206-.323a.332.332,0,0,0,.028-.1c.221-.664.341-.719.974-.461a4.649,4.649,0,0,0,.473.178,3.928,3.928,0,0,0,.464.077c-.031-.172-.04-.283-.068-.384-.2-.688-.194-.691.39-1.109.273-.2.525-.427.79-.642l-.052-.138a5.715,5.715,0,0,0-1.115-.08.869.869,0,0,1-.946-.528,5.5,5.5,0,0,0-.43-.575c-.1.249-.169.4-.224.55s-.123.384-.2.568a.315.315,0,0,1-.519.151c-.154-.1-.307-.209-.442-.307l-.688-.5-.111.08c.074.289.086.793.166,1.078.2.688.194.756-.424,1.121C300.584,235.1,301.5,234.841,301.5,234.841Z" transform="translate(-137.255 -103.556)"/>
    <path id="Path_132" data-name="Path 132" class="cls-3" d="M127.6,234.314c.722,0,.562.4.737,1.075a1.707,1.707,0,0,0,.184.335c.1-.077.206-.151.307-.23.025-.018.037-.055.058-.08.439-.547.571-.556,1.075-.092a4.92,4.92,0,0,0,.381.332,4.286,4.286,0,0,0,.415.237,3.448,3.448,0,0,0,.071-.384c.052-.716.061-.716.753-.9.329-.089.645-.218.965-.329v-.147a6.143,6.143,0,0,0-1.017-.464.869.869,0,0,1-.7-.823,5.429,5.429,0,0,0-.2-.688c-.184.2-.307.307-.406.433s-.249.307-.384.464a.307.307,0,0,1-.541-.04c-.108-.144-.2-.307-.307-.449l-.467-.71-.135.037c-.028.307-.194.771-.218,1.066-.055.716-.083.777-.793.906C126.656,234.237,127.6,234.314,127.6,234.314Z" transform="translate(-16.818 -103.618)"/>
    <path id="Path_133" data-name="Path 133" class="cls-3" d="M192.618,288.118a.442.442,0,0,1-.614-.283c-.065-.157-.307-.654-.369-.8a.4.4,0,0,0-.24-.194c-.058,0-.163.1-.209.175-.083.132-.129.286-.2.424a.808.808,0,0,1-1.2.436c-.163-.074-.307-.169-.488-.234a2.489,2.489,0,0,0-.381-.086v.151c.141.246.283.489.427.731.243.409.221.633-.138.94-.24.206-.519.363-.762.562a6.7,6.7,0,0,0-.485.492c.347.283.633.061.922.058a3.206,3.206,0,0,0,.522-.12c.568-.111.725-.028,1,.479a1.685,1.685,0,0,0,.273.307,1.788,1.788,0,0,0,.286-.307,4.367,4.367,0,0,0,.261-.587.488.488,0,0,1,.581-.347c.218.04.427.129.642.181a3.418,3.418,0,0,0,.356.034,2.156,2.156,0,0,0,0-.344,4.093,4.093,0,0,0-.227-.519.307.307,0,0,1,.2-.458,1.364,1.364,0,0,0,.5-.535C193.413,287.937,192.618,288.118,192.618,288.118Z" transform="translate(-58.976 -141.714)"/>
    <path id="Path_134" data-name="Path 134" class="cls-3" d="M121.618,267.3a.439.439,0,0,1-.614-.283c-.065-.157-.307-.654-.372-.8a.4.4,0,0,0-.237-.194c-.061,0-.163.1-.212.172-.08.135-.129.289-.2.427a.8.8,0,0,1-1.2.433c-.166-.071-.307-.166-.488-.23a2.309,2.309,0,0,0-.381-.086v.151c.138.243.283.485.427.728.243.412.221.633-.141.943-.24.2-.516.359-.762.559a5.683,5.683,0,0,0-.482.495c.347.283.633.061.922.058a3.239,3.239,0,0,0,.525-.12c.568-.114.725-.028,1,.479a1.481,1.481,0,0,0,.273.307,1.794,1.794,0,0,0,.283-.307,3.836,3.836,0,0,0,.261-.584.485.485,0,0,1,.581-.347c.218.037.427.126.645.178a2.252,2.252,0,0,0,.353.034,2.107,2.107,0,0,0,0-.341,3.874,3.874,0,0,0-.224-.522.307.307,0,0,1,.2-.455,1.336,1.336,0,0,0,.5-.538C122.416,267.114,121.618,267.3,121.618,267.3Z" transform="translate(-9.789 -127.291)"/>
    <path id="Path_135" data-name="Path 135" class="cls-3" d="M240.417,263.125a.436.436,0,0,1-.614-.283c-.068-.154-.307-.654-.372-.8a.381.381,0,0,0-.237-.19c-.061,0-.166.1-.212.172-.083.132-.129.286-.2.427a.812.812,0,0,1-1.2.433c-.163-.074-.307-.169-.485-.234a2.624,2.624,0,0,0-.384-.086v.15c.141.246.286.489.427.731.243.409.224.633-.138.94-.24.206-.519.363-.762.562a6.105,6.105,0,0,0-.482.492c.344.283.63.061.922.058a3.313,3.313,0,0,0,.525-.12c.565-.111.725-.028,1,.482a.281.281,0,1,0,.559,0,4.332,4.332,0,0,0,.261-.584.485.485,0,0,1,.581-.35c.218.04.427.129.645.181a2.646,2.646,0,0,0,.353.034,2.152,2.152,0,0,0,0-.344,4.81,4.81,0,0,0-.224-.519.307.307,0,0,1,.2-.455,1.357,1.357,0,0,0,.5-.538C241.216,262.95,240.417,263.125,240.417,263.125Z" transform="translate(-92.091 -124.402)"/>
    <path id="Path_136" data-name="Path 136" class="cls-3" d="M160.844,257.928a.442.442,0,0,1-.614-.283c-.064-.157-.292-.654-.369-.8a.4.4,0,0,0-.24-.194c-.058,0-.163.1-.209.175-.083.132-.129.286-.2.424a.808.808,0,0,1-1.2.436c-.163-.074-.307-.169-.485-.234a2.632,2.632,0,0,0-.384-.086v.151c.141.246.286.488.427.731.243.409.224.633-.138.94-.24.206-.519.363-.762.562a6.1,6.1,0,0,0-.482.492c.344.283.614.061.922.058a3.209,3.209,0,0,0,.522-.12c.568-.111.728-.028,1,.479a1.685,1.685,0,0,0,.273.307,1.784,1.784,0,0,0,.286-.307,4.365,4.365,0,0,0,.261-.587.488.488,0,0,1,.581-.347c.218.04.427.129.642.178a2.759,2.759,0,0,0,.356.037,2.148,2.148,0,0,0,0-.344,4.555,4.555,0,0,0-.224-.519.307.307,0,0,1,.2-.458,1.364,1.364,0,0,0,.5-.535C161.64,257.744,160.844,257.928,160.844,257.928Z" transform="translate(-36.967 -120.799)"/>
    <path id="Path_137" data-name="Path 137" class="cls-3" d="M269.817,255.508a.442.442,0,0,1-.614-.283c-.065-.157-.307-.654-.369-.8a.4.4,0,0,0-.24-.194c-.058,0-.163.1-.209.175-.083.132-.129.286-.2.424a.8.8,0,0,1-1.2.433c-.163-.071-.307-.166-.488-.23a2.491,2.491,0,0,0-.381-.086v.151c.141.246.283.488.427.728.243.412.221.636-.138.943-.24.206-.519.359-.762.559a6.773,6.773,0,0,0-.485.495c.347.283.633.061.922.058a3.2,3.2,0,0,0,.522-.12c.568-.114.725-.028,1,.479a1.683,1.683,0,0,0,.273.307,1.786,1.786,0,0,0,.286-.307,4.366,4.366,0,0,0,.261-.587.488.488,0,0,1,.581-.347c.218.037.427.126.642.178a2.288,2.288,0,0,0,.356.034,2.1,2.1,0,0,0,0-.341,4.328,4.328,0,0,0-.227-.522.307.307,0,0,1,.2-.455,1.364,1.364,0,0,0,.5-.535C270.613,255.324,269.817,255.508,269.817,255.508Z" transform="translate(-112.458 -119.123)"/>
    <path id="Path_138" data-name="Path 138" class="cls-3" d="M223.532,223.948a.439.439,0,0,1-.614-.283c-.065-.157-.307-.654-.372-.8a.4.4,0,0,0-.237-.194c-.061,0-.163.1-.212.172-.08.135-.129.289-.2.427a.805.805,0,0,1-1.2.433c-.166-.071-.323-.166-.488-.23a2.31,2.31,0,0,0-.369-.086.525.525,0,0,0,0,.151c.141.243.286.485.43.728.243.412.221.633-.141.943-.24.2-.516.359-.762.559a5.676,5.676,0,0,0-.482.495c.347.283.633.061.922.058a3.23,3.23,0,0,0,.525-.12c.568-.114.725-.028,1,.479a1.481,1.481,0,0,0,.273.307,1.8,1.8,0,0,0,.283-.307,3.842,3.842,0,0,0,.261-.584.485.485,0,0,1,.581-.347c.218.037.427.126.645.178a2.253,2.253,0,0,0,.353.034,2.113,2.113,0,0,0,0-.341,3.877,3.877,0,0,0-.224-.522.307.307,0,0,1,.2-.455,1.337,1.337,0,0,0,.5-.538C224.34,223.764,223.532,223.948,223.532,223.948Z" transform="translate(-80.404 -97.259)"/>
    <path id="Path_139" data-name="Path 139" class="cls-3" d="M287.087,293.025a.436.436,0,0,1-.614-.283c-.068-.154-.307-.654-.372-.8a.378.378,0,0,0-.24-.19c-.058,0-.163.1-.209.172-.083.132-.129.286-.2.427a.812.812,0,0,1-1.2.433c-.163-.074-.307-.169-.485-.233a2.624,2.624,0,0,0-.384-.086v.151c.141.246.286.488.427.731.243.409.224.633-.138.94-.24.206-.519.363-.762.562a6.1,6.1,0,0,0-.482.492c.344.283.63.061.922.058a3.2,3.2,0,0,0,.522-.12c.568-.111.728-.028,1,.479a1.687,1.687,0,0,0,.273.307,1.785,1.785,0,0,0,.286-.307,4.369,4.369,0,0,0,.261-.587.489.489,0,0,1,.581-.347c.218.04.427.129.645.181a3.273,3.273,0,0,0,.353.034,2.152,2.152,0,0,0,0-.344,4.811,4.811,0,0,0-.224-.519.307.307,0,0,1,.2-.455,1.382,1.382,0,0,0,.5-.538C287.886,292.841,287.087,293.025,287.087,293.025Z" transform="translate(-124.423 -145.116)"/>
    <path id="Path_140" data-name="Path 140" class="cls-3" d="M133.62,294.005c.307-.117.464,0,.562.332a2.255,2.255,0,0,0,.178.369,1.505,1.505,0,0,0,.366-.24.452.452,0,0,1,.535-.16c.307.089.614.157.946.221a1.073,1.073,0,0,0,.307-.04c-.126-.246-.227-.464-.347-.673s-.065-.307.111-.347l.126-.9c-.774.114-.777.077-.882-.719a.3.3,0,0,0-.135-.24c-.065-.022-.187.049-.249.114-.172.181-.307.387-.488.562a.47.47,0,0,1-.765.037c-.27-.221-.519-.47-.8-.685a2.726,2.726,0,0,0-.473-.24c-.031.114-.049.138-.043.154.08.307.169.584.249.876.123.452.043.538-.35.78-.98.614,1.161.8,1.161.8.307-.117.464,0,.562.332a2.253,2.253,0,0,0,.178.369,1.5,1.5,0,0,0,.366-.24.452.452,0,0,1,.535-.16c.307.089.614.157.946.221a1.073,1.073,0,0,0,.307-.04c-.126-.246-.227-.464-.347-.673s-.065-.307.111-.347" transform="translate(-20.357 -144.873)"/>
    <path id="Path_141" data-name="Path 141" class="cls-3" d="M159.411,230.834a19.411,19.411,0,0,1-9.628-2.055,20.613,20.613,0,0,0-18.5.412,21.368,21.368,0,0,1-19.149.427,18.621,18.621,0,0,0-9.3-1.991v-.756a19.44,19.44,0,0,1,9.625,2.055,18.592,18.592,0,0,0,9.3,1.988,18.794,18.794,0,0,0,9.217-2.4,21.355,21.355,0,0,1,19.149-.424,20.647,20.647,0,0,0,18.519-.412,19.5,19.5,0,0,1,9.524-2.479l.015.756a18.8,18.8,0,0,0-9.217,2.4A19.635,19.635,0,0,1,159.411,230.834Z" transform="translate(0 -99.011)"/>
    <path id="Path_142" data-name="Path 142" class="cls-3" d="M159.841,249.768a19.411,19.411,0,0,1-9.628-2.055,20.613,20.613,0,0,0-18.5.412,21.368,21.368,0,0,1-19.149.427,18.655,18.655,0,0,0-9.3-1.991V245.8a19.406,19.406,0,0,1,9.625,2.055,20.641,20.641,0,0,0,18.516-.412,21.375,21.375,0,0,1,19.152-.427,20.628,20.628,0,0,0,18.516-.409,19.528,19.528,0,0,1,9.524-2.482l.015.759a18.693,18.693,0,0,0-9.2,2.4A19.7,19.7,0,0,1,159.841,249.768Z" transform="translate(-0.298 -112.126)"/>
    <path id="Path_143" data-name="Path 143" class="cls-3" d="M160.261,268.708a19.445,19.445,0,0,1-9.628-2.055,20.613,20.613,0,0,0-18.5.412,21.355,21.355,0,0,1-19.149.424,18.626,18.626,0,0,0-9.3-1.988v-.756a19.444,19.444,0,0,1,9.625,2.052,20.628,20.628,0,0,0,18.516-.409,21.374,21.374,0,0,1,19.152-.427,18.593,18.593,0,0,0,9.3,1.988,18.793,18.793,0,0,0,9.217-2.4,19.533,19.533,0,0,1,9.524-2.479l.018.759a18.751,18.751,0,0,0-9.217,2.4A19.659,19.659,0,0,1,160.261,268.708Z" transform="translate(-0.589 -125.247)"/>
    <path id="Path_144" data-name="Path 144" class="cls-3" d="M160.647,287.648a19.445,19.445,0,0,1-9.628-2.055,18.6,18.6,0,0,0-9.3-1.988A18.794,18.794,0,0,0,132.5,286a21.355,21.355,0,0,1-19.149.424,18.617,18.617,0,0,0-9.3-1.988v-.756a19.437,19.437,0,0,1,9.625,2.052,20.628,20.628,0,0,0,18.516-.409,21.349,21.349,0,0,1,19.152-.427,18.593,18.593,0,0,0,9.3,1.988,18.793,18.793,0,0,0,9.217-2.4,19.533,19.533,0,0,1,9.524-2.479l.018.756a18.783,18.783,0,0,0-9.217,2.4A19.621,19.621,0,0,1,160.647,287.648Z" transform="translate(-0.845 -138.368)"/>
  </g>
</svg>
